<?xml version="1.0" encoding="UTF-8" standalone="no"?>
<!DOCTYPE svg PUBLIC "-//W3C//DTD SVG 1.1//EN"
 "http://www.w3.org/Graphics/SVG/1.1/DTD/svg11.dtd">
<!-- Generated by graphviz version 2.38.0 (20140413.2041)
 -->
<!-- Title: model Pages: 1 -->
<svg width="695pt" height="402pt"
 viewBox="0.00 0.00 695.00 402.00" xmlns="http://www.w3.org/2000/svg" xmlns:xlink="http://www.w3.org/1999/xlink">
<g id="graph0" class="graph" transform="scale(1 1) rotate(0) translate(4 398)">
<title>model</title>
<polygon fill="white" stroke="none" points="-4,4 -4,-398 691,-398 691,4 -4,4"/>
<g id="clust1" class="cluster"><title>cluster_eestore</title>
<polygon fill="none" stroke="black" points="8,-95 8,-386 340,-386 340,-95 8,-95"/>
<text text-anchor="middle" x="174" y="-370.8" font-family="Times,serif" font-size="14.00">eestore</text>
</g>
<g id="clust2" class="cluster"><title>cluster_dmpt</title>
<polygon fill="none" stroke="black" points="348,-8 348,-386 494,-386 494,-8 348,-8"/>
<text text-anchor="middle" x="421" y="-370.8" font-family="Times,serif" font-size="14.00">dmpt</text>
</g>
<g id="clust3" class="cluster"><title>cluster_plan</title>
<polygon fill="none" stroke="black" points="502,-95 502,-170 572,-170 572,-95 502,-95"/>
<text text-anchor="middle" x="537" y="-154.8" font-family="Times,serif" font-size="14.00">plan</text>
</g>
<g id="clust4" class="cluster"><title>cluster_flow</title>
<polygon fill="none" stroke="black" points="580,-8 580,-278 679,-278 679,-8 580,-8"/>
<text text-anchor="middle" x="629.5" y="-262.8" font-family="Times,serif" font-size="14.00">flow</text>
</g>
<!-- EEStorePluginMount -->
<g id="node1" class="node"><title>EEStorePluginMount</title>
<ellipse fill="none" stroke="black" cx="245" cy="-337" rx="87.1846" ry="18"/>
<text text-anchor="middle" x="245" y="-333.3" font-family="Times,serif" font-size="14.00">EEStorePluginMount</text>
</g>
<!-- EEStoreType -->
<g id="node2" class="node"><title>EEStoreType</title>
<ellipse fill="none" stroke="black" cx="220" cy="-121" rx="57.6901" ry="18"/>
<text text-anchor="middle" x="220" y="-117.3" font-family="Times,serif" font-size="14.00">EEStoreType</text>
</g>
<!-- EEStorePluginMount&#45;&gt;EEStoreType -->
<g id="edge1" class="edge"><title>EEStorePluginMount&#45;&gt;EEStoreType</title>
<path fill="none" stroke="black" d="M243.379,-318.866C242.442,-309.208 241.212,-296.925 240,-286 234.657,-237.848 227.658,-181.843 223.514,-149.31"/>
<polygon fill="black" stroke="black" points="226.965,-148.698 222.225,-139.222 220.021,-149.585 226.965,-148.698"/>
<text text-anchor="middle" x="248.5" y="-225.3" font-family="Times,serif" font-size="14.00">has</text>
</g>
<!-- EEStoreSource -->
<g id="node3" class="node"><title>EEStoreSource</title>
<ellipse fill="none" stroke="black" cx="145" cy="-229" rx="64.189" ry="18"/>
<text text-anchor="middle" x="145" y="-225.3" font-family="Times,serif" font-size="14.00">EEStoreSource</text>
</g>
<!-- EEStorePluginMount&#45;&gt;EEStoreSource -->
<g id="edge2" class="edge"><title>EEStorePluginMount&#45;&gt;EEStoreSource</title>
<path fill="none" stroke="black" stroke-dasharray="1,5" d="M211.64,-320.195C202.641,-314.919 193.367,-308.454 186,-301 173.399,-288.25 163.274,-270.862 156.238,-256.485"/>
<polygon fill="black" stroke="black" points="159.264,-254.693 151.868,-247.107 152.919,-257.649 159.264,-254.693"/>
<text text-anchor="middle" x="213" y="-289.8" font-family="Times,serif" font-size="14.00">may have</text>
</g>
<!-- Question -->
<g id="node5" class="node"><title>Question</title>
<ellipse fill="none" stroke="black" cx="436" cy="-229" rx="42.4939" ry="18"/>
<text text-anchor="middle" x="436" y="-225.3" font-family="Times,serif" font-size="14.00">Question</text>
</g>
<!-- EEStorePluginMount&#45;&gt;Question -->
<g id="edge5" class="edge"><title>EEStorePluginMount&#45;&gt;Question</title>
<path fill="none" stroke="black" d="M274.009,-319.901C308.547,-300.733 366.118,-268.783 402.515,-248.583"/>
<polygon fill="black" stroke="black" points="404.24,-251.629 411.285,-243.716 400.843,-245.508 404.24,-251.629"/>
<text text-anchor="middle" x="344.5" y="-289.8" font-family="Times,serif" font-size="14.00">has</text>
</g>
<!-- EEStoreSource&#45;&gt;EEStoreType -->
<g id="edge3" class="edge"><title>EEStoreSource&#45;&gt;EEStoreType</title>
<path fill="none" stroke="black" d="M157.05,-210.969C169.314,-193.636 188.454,-166.586 202.411,-146.86"/>
<polygon fill="black" stroke="black" points="205.308,-148.824 208.227,-138.639 199.594,-144.781 205.308,-148.824"/>
<text text-anchor="middle" x="190.5" y="-181.8" font-family="Times,serif" font-size="14.00">has</text>
</g>
<!-- EEStoreCache -->
<g id="node4" class="node"><title>EEStoreCache</title>
<ellipse fill="none" stroke="black" cx="78" cy="-337" rx="61.99" ry="18"/>
<text text-anchor="middle" x="78" y="-333.3" font-family="Times,serif" font-size="14.00">EEStoreCache</text>
</g>
<!-- EEStoreCache&#45;&gt;EEStoreSource -->
<g id="edge4" class="edge"><title>EEStoreCache&#45;&gt;EEStoreSource</title>
<path fill="none" stroke="black" d="M88.7647,-318.969C99.6071,-301.816 116.466,-275.144 128.898,-255.474"/>
<polygon fill="black" stroke="black" points="131.878,-257.312 134.262,-246.988 125.96,-253.571 131.878,-257.312"/>
<text text-anchor="middle" x="119.5" y="-289.8" font-family="Times,serif" font-size="14.00">has</text>
</g>
<!-- Section -->
<g id="node6" class="node"><title>Section</title>
<ellipse fill="none" stroke="black" cx="438" cy="-121" rx="37.0935" ry="18"/>
<text text-anchor="middle" x="438" y="-117.3" font-family="Times,serif" font-size="14.00">Section</text>
</g>
<!-- Question&#45;&gt;Section -->
<g id="edge6" class="edge"><title>Question&#45;&gt;Section</title>
<path fill="none" stroke="black" d="M436.321,-210.969C436.634,-194.378 437.115,-168.883 437.482,-149.431"/>
<polygon fill="black" stroke="black" points="440.983,-149.405 437.673,-139.341 433.985,-149.273 440.983,-149.405"/>
<text text-anchor="middle" x="446.5" y="-181.8" font-family="Times,serif" font-size="14.00">has</text>
</g>
<!-- Node -->
<g id="node11" class="node"><title>Node</title>
<ellipse fill="none" stroke="black" cx="618" cy="-121" rx="29.795" ry="18"/>
<text text-anchor="middle" x="618" y="-117.3" font-family="Times,serif" font-size="14.00">Node</text>
</g>
<!-- Question&#45;&gt;Node -->
<g id="edge12" class="edge"><title>Question&#45;&gt;Node</title>
<path fill="none" stroke="black" stroke-dasharray="1,5" d="M465.746,-216.078C505.417,-200.12 571.244,-173.412 576,-170 585.177,-163.416 593.708,-154.458 600.652,-146.064"/>
<polygon fill="black" stroke="black" points="603.593,-147.987 607.032,-137.966 598.094,-143.655 603.593,-147.987"/>
<text text-anchor="middle" x="583" y="-181.8" font-family="Times,serif" font-size="14.00">may have</text>
</g>
<!-- Template -->
<g id="node7" class="node"><title>Template</title>
<ellipse fill="none" stroke="black" cx="441" cy="-34" rx="44.393" ry="18"/>
<text text-anchor="middle" x="441" y="-30.3" font-family="Times,serif" font-size="14.00">Template</text>
</g>
<!-- Section&#45;&gt;Template -->
<g id="edge7" class="edge"><title>Section&#45;&gt;Template</title>
<path fill="none" stroke="black" d="M438.607,-102.799C439.018,-91.1626 439.569,-75.5479 440.039,-62.2368"/>
<polygon fill="black" stroke="black" points="443.539,-62.2927 440.394,-52.1754 436.543,-62.0457 443.539,-62.2927"/>
<text text-anchor="middle" x="449.5" y="-73.8" font-family="Times,serif" font-size="14.00">has</text>
</g>
<!-- CannedAnswer -->
<g id="node8" class="node"><title>CannedAnswer</title>
<ellipse fill="none" stroke="black" cx="421" cy="-337" rx="64.9885" ry="18"/>
<text text-anchor="middle" x="421" y="-333.3" font-family="Times,serif" font-size="14.00">CannedAnswer</text>
</g>
<!-- CannedAnswer&#45;&gt;Question -->
<g id="edge8" class="edge"><title>CannedAnswer&#45;&gt;Question</title>
<path fill="none" stroke="black" d="M423.41,-318.969C425.772,-302.279 429.409,-276.579 432.167,-257.084"/>
<polygon fill="black" stroke="black" points="435.66,-257.38 433.596,-246.988 428.729,-256.399 435.66,-257.38"/>
<text text-anchor="middle" x="438.5" y="-289.8" font-family="Times,serif" font-size="14.00">has</text>
</g>
<!-- Edge -->
<g id="node10" class="node"><title>Edge</title>
<ellipse fill="none" stroke="black" cx="617" cy="-229" rx="28.6953" ry="18"/>
<text text-anchor="middle" x="617" y="-225.3" font-family="Times,serif" font-size="14.00">Edge</text>
</g>
<!-- CannedAnswer&#45;&gt;Edge -->
<g id="edge13" class="edge"><title>CannedAnswer&#45;&gt;Edge</title>
<path fill="none" stroke="black" stroke-dasharray="1,5" d="M449.5,-320.587C486.204,-300.737 549.706,-266.394 587.084,-246.179"/>
<polygon fill="black" stroke="black" points="588.861,-249.197 595.992,-241.362 585.531,-243.04 588.861,-249.197"/>
<text text-anchor="middle" x="541" y="-289.8" font-family="Times,serif" font-size="14.00">may have</text>
</g>
<!-- Plan -->
<g id="node9" class="node"><title>Plan</title>
<ellipse fill="none" stroke="black" cx="537" cy="-121" rx="27" ry="18"/>
<text text-anchor="middle" x="537" y="-117.3" font-family="Times,serif" font-size="14.00">Plan</text>
</g>
<!-- Plan&#45;&gt;Template -->
<g id="edge9" class="edge"><title>Plan&#45;&gt;Template</title>
<path fill="none" stroke="black" d="M521.148,-105.964C506.277,-92.7972 483.788,-72.8848 466.413,-57.5009"/>
<polygon fill="black" stroke="black" points="468.643,-54.8004 458.835,-50.7917 464.002,-60.0413 468.643,-54.8004"/>
<text text-anchor="middle" x="504.5" y="-73.8" font-family="Times,serif" font-size="14.00">has</text>
</g>
<!-- Edge&#45;&gt;Node -->
<g id="edge10" class="edge"><title>Edge&#45;&gt;Node</title>
<path fill="none" stroke="black" stroke-dasharray="1,5" d="M617.161,-210.969C617.317,-194.378 617.558,-168.883 617.741,-149.431"/>
<polygon fill="black" stroke="black" points="621.242,-149.373 617.836,-139.341 614.242,-149.307 621.242,-149.373"/>
<text text-anchor="middle" x="644" y="-181.8" font-family="Times,serif" font-size="14.00">may have</text>
</g>
<!-- FSA -->
<g id="node12" class="node"><title>FSA</title>
<ellipse fill="none" stroke="black" cx="618" cy="-34" rx="27" ry="18"/>
<text text-anchor="middle" x="618" y="-30.3" font-family="Times,serif" font-size="14.00">FSA</text>
</g>
<!-- Node&#45;&gt;FSA -->
<g id="edge11" class="edge"><title>Node&#45;&gt;FSA</title>
<path fill="none" stroke="black" d="M618,-102.799C618,-91.1626 618,-75.5479 618,-62.2368"/>
<polygon fill="black" stroke="black" points="621.5,-62.1754 618,-52.1754 614.5,-62.1755 621.5,-62.1754"/>
<text text-anchor="middle" x="627.5" y="-73.8" font-family="Times,serif" font-size="14.00">has</text>
</g>
</g>
</svg>
