<?xml version="1.0" encoding="UTF-8" standalone="no"?>
<!DOCTYPE svg PUBLIC "-//W3C//DTD SVG 1.1//EN"
 "http://www.w3.org/Graphics/SVG/1.1/DTD/svg11.dtd">
<!-- Generated by graphviz version 2.43.0 (0)
 -->
<!-- Title: model Pages: 1 -->
<svg width="882pt" height="381pt"
 viewBox="0.00 0.00 882.00 381.00" xmlns="http://www.w3.org/2000/svg" xmlns:xlink="http://www.w3.org/1999/xlink">
<g id="graph0" class="graph" transform="scale(1 1) rotate(0) translate(4 377)">
<title>model</title>
<polygon fill="white" stroke="transparent" points="-4,4 -4,-377 878,-377 878,4 -4,4"/>
<g id="clust1" class="cluster">
<title>cluster_eestore</title>
<polygon fill="none" stroke="black" points="8,-95 8,-365 418,-365 418,-95 8,-95"/>
<text text-anchor="middle" x="213" y="-349.8" font-family="Times,serif" font-size="14.00">eestore</text>
</g>
<g id="clust2" class="cluster">
<title>cluster_dmpt</title>
<polygon fill="none" stroke="black" points="426,-8 426,-365 780,-365 780,-8 426,-8"/>
<text text-anchor="middle" x="603" y="-349.8" font-family="Times,serif" font-size="14.00">dmpt</text>
</g>
<g id="clust3" class="cluster">
<title>cluster_plan</title>
<polygon fill="none" stroke="black" points="788,-95 788,-170 866,-170 866,-95 788,-95"/>
<text text-anchor="middle" x="827" y="-154.8" font-family="Times,serif" font-size="14.00">plan</text>
</g>
<!-- EEStorePluginMount -->
<g id="node1" class="node">
<title>EEStorePluginMount</title>
<ellipse fill="none" stroke="black" cx="300" cy="-316" rx="109.68" ry="18"/>
<text text-anchor="middle" x="300" y="-312.3" font-family="Times,serif" font-size="14.00">EEStorePluginMount</text>
</g>
<!-- EEStoreType -->
<g id="node2" class="node">
<title>EEStoreType</title>
<ellipse fill="none" stroke="black" cx="241" cy="-121" rx="72.29" ry="18"/>
<text text-anchor="middle" x="241" y="-117.3" font-family="Times,serif" font-size="14.00">EEStoreType</text>
</g>
<!-- EEStorePluginMount&#45;&gt;EEStoreType -->
<g id="edge1" class="edge">
<title>EEStorePluginMount&#45;&gt;EEStoreType</title>
<path fill="none" stroke="black" d="M299.38,-297.69C298.76,-287.98 297.51,-275.7 295,-265 285.13,-222.94 265.98,-176.54 253.34,-148.33"/>
<polygon fill="black" stroke="black" points="256.49,-146.81 249.16,-139.15 250.12,-149.7 256.49,-146.81"/>
<text text-anchor="middle" x="302.5" y="-225.3" font-family="Times,serif" font-size="14.00">has</text>
</g>
<!-- EEStoreSource -->
<g id="node3" class="node">
<title>EEStoreSource</title>
<ellipse fill="none" stroke="black" cx="182" cy="-229" rx="81.79" ry="18"/>
<text text-anchor="middle" x="182" y="-225.3" font-family="Times,serif" font-size="14.00">EEStoreSource</text>
</g>
<!-- EEStorePluginMount&#45;&gt;EEStoreSource -->
<g id="edge2" class="edge">
<title>EEStorePluginMount&#45;&gt;EEStoreSource</title>
<path fill="none" stroke="black" stroke-dasharray="1,5" d="M259.13,-299.28C247.86,-294.01 235.99,-287.52 226,-280 216.62,-272.94 207.76,-263.61 200.48,-254.93"/>
<polygon fill="black" stroke="black" points="203.01,-252.49 194.02,-246.89 197.56,-256.88 203.01,-252.49"/>
<text text-anchor="middle" x="260.5" y="-268.8" font-family="Times,serif" font-size="14.00">may have</text>
</g>
<!-- Question -->
<g id="node5" class="node">
<title>Question</title>
<ellipse fill="none" stroke="black" cx="561" cy="-229" rx="51.99" ry="18"/>
<text text-anchor="middle" x="561" y="-225.3" font-family="Times,serif" font-size="14.00">Question</text>
</g>
<!-- EEStorePluginMount&#45;&gt;Question -->
<g id="edge5" class="edge">
<title>EEStorePluginMount&#45;&gt;Question</title>
<path fill="none" stroke="black" d="M346.96,-299.71C394.51,-284.22 467.58,-260.43 514.83,-245.03"/>
<polygon fill="black" stroke="black" points="516.08,-248.31 524.51,-241.88 513.92,-241.65 516.08,-248.31"/>
<text text-anchor="middle" x="459.5" y="-268.8" font-family="Times,serif" font-size="14.00">has</text>
</g>
<!-- EEStoreSource&#45;&gt;EEStoreType -->
<g id="edge3" class="edge">
<title>EEStoreSource&#45;&gt;EEStoreType</title>
<path fill="none" stroke="black" d="M191.48,-210.97C200.98,-193.89 215.74,-167.38 226.67,-147.74"/>
<polygon fill="black" stroke="black" points="229.74,-149.43 231.54,-138.99 223.62,-146.02 229.74,-149.43"/>
<text text-anchor="middle" x="222.5" y="-181.8" font-family="Times,serif" font-size="14.00">has</text>
</g>
<!-- EEStoreCache -->
<g id="node4" class="node">
<title>EEStoreCache</title>
<ellipse fill="none" stroke="black" cx="94" cy="-316" rx="77.99" ry="18"/>
<text text-anchor="middle" x="94" y="-312.3" font-family="Times,serif" font-size="14.00">EEStoreCache</text>
</g>
<!-- EEStoreCache&#45;&gt;EEStoreSource -->
<g id="edge4" class="edge">
<title>EEStoreCache&#45;&gt;EEStoreSource</title>
<path fill="none" stroke="black" d="M111.39,-298.21C124.52,-285.52 142.73,-267.93 157.37,-253.79"/>
<polygon fill="black" stroke="black" points="159.89,-256.22 164.65,-246.76 155.03,-251.19 159.89,-256.22"/>
<text text-anchor="middle" x="156.5" y="-268.8" font-family="Times,serif" font-size="14.00">has</text>
</g>
<!-- Section -->
<g id="node6" class="node">
<title>Section</title>
<ellipse fill="none" stroke="black" cx="644" cy="-121" rx="45.49" ry="18"/>
<text text-anchor="middle" x="644" y="-117.3" font-family="Times,serif" font-size="14.00">Section</text>
</g>
<!-- Question&#45;&gt;Section -->
<g id="edge6" class="edge">
<title>Question&#45;&gt;Section</title>
<path fill="none" stroke="black" d="M573.97,-211.44C587.61,-194.01 609.23,-166.4 624.84,-146.47"/>
<polygon fill="black" stroke="black" points="627.71,-148.48 631.12,-138.45 622.2,-144.16 627.71,-148.48"/>
<text text-anchor="middle" x="612.5" y="-181.8" font-family="Times,serif" font-size="14.00">has</text>
</g>
<!-- Template -->
<g id="node7" class="node">
<title>Template</title>
<ellipse fill="none" stroke="black" cx="701" cy="-34" rx="53.89" ry="18"/>
<text text-anchor="middle" x="701" y="-30.3" font-family="Times,serif" font-size="14.00">Template</text>
</g>
<!-- Section&#45;&gt;Template -->
<g id="edge7" class="edge">
<title>Section&#45;&gt;Template</title>
<path fill="none" stroke="black" d="M655.26,-103.21C663.46,-90.98 674.7,-74.21 683.99,-60.36"/>
<polygon fill="black" stroke="black" points="687.1,-62.01 689.76,-51.76 681.29,-58.11 687.1,-62.01"/>
<text text-anchor="middle" x="687.5" y="-73.8" font-family="Times,serif" font-size="14.00">has</text>
</g>
<!-- CannedAnswer -->
<g id="node8" class="node">
<title>CannedAnswer</title>
<ellipse fill="none" stroke="black" cx="691" cy="-316" rx="80.69" ry="18"/>
<text text-anchor="middle" x="691" y="-312.3" font-family="Times,serif" font-size="14.00">CannedAnswer</text>
</g>
<!-- CannedAnswer&#45;&gt;Question -->
<g id="edge8" class="edge">
<title>CannedAnswer&#45;&gt;Question</title>
<path fill="none" stroke="black" d="M668.23,-298.63C654.19,-288.68 635.73,-275.84 619,-265 611.33,-260.03 602.97,-254.85 595.04,-250.04"/>
<polygon fill="black" stroke="black" points="596.71,-246.97 586.34,-244.81 593.11,-252.97 596.71,-246.97"/>
<text text-anchor="middle" x="653.5" y="-268.8" font-family="Times,serif" font-size="14.00">has</text>
</g>
<!-- ExplicitBranch -->
<g id="node9" class="node">
<title>ExplicitBranch</title>
<ellipse fill="none" stroke="black" cx="513" cy="-316" rx="79.09" ry="18"/>
<text text-anchor="middle" x="513" y="-312.3" font-family="Times,serif" font-size="14.00">ExplicitBranch</text>
</g>
<!-- ExplicitBranch&#45;&gt;Question -->
<g id="edge9" class="edge">
<title>ExplicitBranch&#45;&gt;Question</title>
<path fill="none" stroke="black" d="M509.73,-297.88C508.66,-287.77 508.83,-275.04 514,-265 516.74,-259.67 520.72,-254.94 525.2,-250.81"/>
<polygon fill="black" stroke="black" points="527.52,-253.44 533.12,-244.44 523.14,-247.98 527.52,-253.44"/>
<text text-anchor="middle" x="526.5" y="-268.8" font-family="Times,serif" font-size="14.00">has</text>
</g>
<!-- ExplicitBranch&#45;&gt;Question -->
<g id="edge10" class="edge">
<title>ExplicitBranch&#45;&gt;Question</title>
<path fill="none" stroke="black" stroke-dasharray="1,5" d="M526.76,-298.08C530.97,-292.5 535.42,-286.15 539,-280 543.29,-272.62 547.28,-264.25 550.66,-256.5"/>
<polygon fill="black" stroke="black" points="553.95,-257.71 554.58,-247.13 547.49,-255 553.95,-257.71"/>
<text text-anchor="middle" x="580.5" y="-268.8" font-family="Times,serif" font-size="14.00">may have</text>
</g>
<!-- Plan -->
<g id="node10" class="node">
<title>Plan</title>
<ellipse fill="none" stroke="black" cx="827" cy="-121" rx="31.4" ry="18"/>
<text text-anchor="middle" x="827" y="-117.3" font-family="Times,serif" font-size="14.00">Plan</text>
</g>
<!-- Plan&#45;&gt;Template -->
<g id="edge11" class="edge">
<title>Plan&#45;&gt;Template</title>
<path fill="none" stroke="black" d="M807.59,-106.91C787.55,-93.38 755.96,-72.07 732.36,-56.16"/>
<polygon fill="black" stroke="black" points="734.32,-53.25 724.07,-50.56 730.4,-59.06 734.32,-53.25"/>
<text text-anchor="middle" x="783.5" y="-73.8" font-family="Times,serif" font-size="14.00">has</text>
</g>
</g>
</svg>
