<?xml version="1.0" encoding="UTF-8" standalone="no"?>
<svg
   xmlns:dc="http://purl.org/dc/elements/1.1/"
   xmlns:cc="http://creativecommons.org/ns#"
   xmlns:rdf="http://www.w3.org/1999/02/22-rdf-syntax-ns#"
   xmlns:svg="http://www.w3.org/2000/svg"
   xmlns="http://www.w3.org/2000/svg"
   xmlns:sodipodi="http://sodipodi.sourceforge.net/DTD/sodipodi-0.dtd"
   xmlns:inkscape="http://www.inkscape.org/namespaces/inkscape"
   width="11.336045cm"
   height="9.4523258cm"
   viewBox="36 148 215.38486 180.64445"
   id="svg2"
   version="1.1"
   inkscape:version="0.91 r13725"
   sodipodi:docname="overview2.svg">
  <metadata
     id="metadata154">
    <rdf:RDF>
      <cc:Work
         rdf:about="">
        <dc:format>image/svg+xml</dc:format>
        <dc:type
           rdf:resource="http://purl.org/dc/dcmitype/StillImage" />
        <dc:title></dc:title>
      </cc:Work>
    </rdf:RDF>
  </metadata>
  <defs
     id="defs152" />
  <sodipodi:namedview
     pagecolor="#ffffff"
     bordercolor="#666666"
     borderopacity="1"
     objecttolerance="10"
     gridtolerance="10"
     guidetolerance="10"
     inkscape:pageopacity="0"
     inkscape:pageshadow="2"
     inkscape:window-width="640"
     inkscape:window-height="480"
     id="namedview150"
     showgrid="false"
     fit-margin-top="0.2"
     fit-margin-right="0.2"
     fit-margin-bottom="0.2"
     fit-margin-left="0.2"
     inkscape:zoom="0.74004938"
     inkscape:cx="201.74847"
     inkscape:cy="167.46245"
     inkscape:window-x="311"
     inkscape:window-y="290"
     inkscape:window-maximized="0"
     inkscape:current-layer="svg2" />
  <g
     id="g4"
     transform="translate(3.7035442,4.3222223)">
    <g
       id="g6">
      <path
         style="fill:#ffffff"
         d="m 120,155.333 c 7.9,-5.5 11.85,-7.333 19.75,-7.333 7.9,0 11.85,1.833 19.75,7.333 l 0,29.334 c -7.9,5.5 -11.85,7.333 -19.75,7.333 -7.9,0 -11.85,-1.833 -19.75,-7.333 l 0,-29.334 z"
         id="path8"
         inkscape:connector-curvature="0" />
      <path
         style="fill:none;fill-opacity:0;stroke:#000000;stroke-width:1"
         d="m 120,155.333 c 7.9,-5.5 11.85,-7.333 19.75,-7.333 7.9,0 11.85,1.833 19.75,7.333 l 0,29.334 c -7.9,5.5 -11.85,7.333 -19.75,7.333 -7.9,0 -11.85,-1.833 -19.75,-7.333 l 0,-29.334"
         id="path10"
         inkscape:connector-curvature="0" />
      <path
         style="fill:none;fill-opacity:0;stroke:#000000;stroke-width:1"
         d="m 120,155.333 c 7.9,5.5 11.85,7.334 19.75,7.334 7.9,0 11.85,-1.834 19.75,-7.334"
         id="path12"
         inkscape:connector-curvature="0" />
      <text
         font-size="12.7998"
         style="font-style:normal;font-weight:normal;font-size:12.79979992px;font-family:sans-serif;text-anchor:middle;fill:#000000"
         x="139.75"
         y="177.66701"
         id="text14">
        <tspan
           x="139.75"
           y="177.66701"
           id="tspan16" />
      </text>
    </g>
    <text
       font-size="12.7998"
       style="font-style:normal;font-weight:normal;font-size:12.79979992px;font-family:sans-serif;text-anchor:middle;fill:#000000"
       x="140"
       y="176.45"
       id="text18">
      <tspan
         x="140"
         y="176.45"
         id="tspan20">DB</tspan>
    </text>
  </g>
  <g
     id="g22"
     transform="translate(3.7035442,4.3222223)">
    <g
       id="g24">
      <circle
         style="fill:#ffffff"
         cx="180"
         cy="296"
         id="ellipse26"
         r="24" />
      <circle
         style="fill:none;fill-opacity:0;stroke:#000000;stroke-width:1"
         cx="180"
         cy="296"
         id="ellipse28"
         r="24" />
      <text
         font-size="12.7998"
         style="font-style:normal;font-weight:normal;font-size:12.79979992px;font-family:sans-serif;text-anchor:middle;fill:#000000"
         x="180"
         y="299.89999"
         id="text30">
        <tspan
           x="180"
           y="299.89999"
           id="tspan32" />
      </text>
    </g>
    <text
       font-size="11.2887"
       style="font-style:normal;font-weight:normal;font-size:11.2887001px;font-family:sans-serif;text-anchor:middle;fill:#000000"
       x="180"
       y="299.92499"
       id="text34">
      <tspan
         x="180"
         y="299.92499"
         id="tspan36">Web</tspan>
    </text>
  </g>
  <g
     id="g38"
     transform="translate(3.7035442,4.3222223)">
    <g
       id="g40">
      <circle
         style="fill:#ffffff"
         cx="100"
         cy="296"
         id="ellipse42"
         r="24" />
      <circle
         style="fill:none;fill-opacity:0;stroke:#000000;stroke-width:1;stroke-dasharray:4"
         cx="100"
         cy="296"
         id="ellipse44"
         r="24" />
      <text
         font-size="12.7998"
         style="font-style:normal;font-weight:normal;font-size:12.79979992px;font-family:sans-serif;text-anchor:middle;fill:#000000"
         x="100"
         y="299.89999"
         id="text46">
        <tspan
           x="100"
           y="299.89999"
           id="tspan48" />
      </text>
    </g>
    <text
       font-size="11.2887"
       style="font-style:normal;font-weight:normal;font-size:11.2887001px;font-family:sans-serif;text-anchor:middle;fill:#000000"
       x="100"
       y="299.92499"
       id="text50">
      <tspan
         x="100"
         y="299.92499"
         id="tspan52">API</tspan>
    </text>
  </g>
  <g
     id="g54"
     transform="translate(3.7035442,4.3222223)">
    <g
       id="g56">
      <circle
         style="fill:#ffffff"
         cx="220"
         cy="236"
         id="ellipse58"
         r="24" />
      <circle
         style="fill:none;fill-opacity:0;stroke:#000000;stroke-width:1"
         cx="220"
         cy="236"
         id="ellipse60"
         r="24" />
      <text
         font-size="12.7998"
         style="font-style:normal;font-weight:normal;font-size:12.79979992px;font-family:sans-serif;text-anchor:middle;fill:#000000"
         x="220"
         y="239.89999"
         id="text62">
        <tspan
           x="220"
           y="239.89999"
           id="tspan64" />
      </text>
    </g>
    <text
       font-size="11.2889"
       style="font-style:normal;font-weight:normal;font-size:11.28890038px;font-family:sans-serif;text-anchor:middle;fill:#000000"
       x="220"
       y="239.925"
       id="text66">
      <tspan
         x="220"
         y="239.925"
         id="tspan68">Auth</tspan>
    </text>
  </g>
  <g
     id="g70"
     transform="translate(3.7035442,4.3222223)">
    <g
       id="g72">
      <circle
         style="fill:#ffffff"
         cx="60"
         cy="236"
         id="ellipse74"
         r="24" />
      <circle
         style="fill:none;fill-opacity:0;stroke:#000000;stroke-width:1"
         cx="60"
         cy="236"
         id="ellipse76"
         r="24" />
      <text
         font-size="12.7998"
         style="font-style:normal;font-weight:normal;font-size:12.79979992px;font-family:sans-serif;text-anchor:middle;fill:#000000"
         x="60"
         y="239.89999"
         id="text78">
        <tspan
           x="60"
           y="239.89999"
           id="tspan80" />
      </text>
    </g>
    <text
       font-size="11.2887"
       style="font-style:normal;font-weight:normal;font-size:11.2887001px;font-family:sans-serif;text-anchor:middle;fill:#000000"
       x="60"
       y="239.925"
       id="text82">
      <tspan
         x="60"
         y="239.925"
         id="tspan84">EEStore</tspan>
    </text>
  </g>
  <g
     id="g86"
     transform="translate(3.7035442,4.3222223)">
    <line
       style="fill:none;fill-opacity:0;stroke:#000000;stroke-width:1"
       x1="84"
       y1="236"
       x2="111.882"
       y2="236"
       id="line88" />
    <polygon
       style="fill:#000000"
       points="111.882,236 110.882,234 114.882,236 110.882,238 "
       id="polygon90" />
    <polygon
       style="fill:none;fill-opacity:0;stroke:#000000;stroke-width:1"
       points="111.882,236 110.882,234 114.882,236 110.882,238 "
       id="polygon92" />
  </g>
  <g
     id="g94"
     transform="translate(3.7035442,4.3222223)">
    <g
       id="g96">
      <circle
         style="fill:#ffffff"
         cx="140"
         cy="236"
         id="ellipse98"
         r="24" />
      <circle
         style="fill:none;fill-opacity:0;stroke:#000000;stroke-width:1"
         cx="140"
         cy="236"
         id="ellipse100"
         r="24" />
      <text
         font-size="12.7998"
         style="font-style:normal;font-weight:normal;font-size:12.79979992px;font-family:sans-serif;text-anchor:middle;fill:#000000"
         x="140"
         y="239.89999"
         id="text102">
        <tspan
           x="140"
           y="239.89999"
           id="tspan104" />
      </text>
    </g>
    <text
       font-size="11.2887"
       style="font-style:normal;font-weight:normal;font-size:11.2887001px;font-family:sans-serif;text-anchor:middle;fill:#000000"
       x="140"
       y="239.925"
       id="text106">
      <tspan
         x="140"
         y="239.925"
         id="tspan108">Model</tspan>
    </text>
  </g>
  <g
     id="g110"
     transform="translate(3.7035442,4.3222223)">
    <line
       style="fill:none;fill-opacity:0;stroke:#000000;stroke-width:1"
       x1="139.80099"
       y1="196.118"
       x2="139.94901"
       y2="207.882"
       id="line112" />
    <polygon
       style="fill:#000000"
       points="139.801,196.118 137.814,197.143 139.764,193.118 141.814,197.093 "
       id="polygon114" />
    <polygon
       style="fill:none;fill-opacity:0;stroke:#000000;stroke-width:1"
       points="139.801,196.118 137.814,197.143 139.764,193.118 141.814,197.093 "
       id="polygon116" />
    <polygon
       style="fill:#000000"
       points="139.949,207.882 141.936,206.857 139.986,210.882 137.936,206.907 "
       id="polygon118" />
    <polygon
       style="fill:none;fill-opacity:0;stroke:#000000;stroke-width:1"
       points="139.949,207.882 141.936,206.857 139.986,210.882 137.936,206.907 "
       id="polygon120" />
  </g>
  <g
     id="g122"
     transform="translate(3.7035442,4.3222223)">
    <line
       style="fill:none;fill-opacity:0;stroke:#000000;stroke-width:1"
       x1="151.46201"
       y1="261.604"
       x2="160.752"
       y2="275.599"
       id="line124" />
    <polygon
       style="fill:#000000"
       points="151.462,261.604 150.349,263.543 149.803,259.105 153.681,261.331 "
       id="polygon126" />
    <polygon
       style="fill:none;fill-opacity:0;stroke:#000000;stroke-width:1"
       points="151.462,261.604 150.349,263.543 149.803,259.105 153.681,261.331 "
       id="polygon128" />
    <polygon
       style="fill:#000000"
       points="160.752,275.599 161.865,273.659 162.411,278.098 158.533,275.872 "
       id="polygon130" />
    <polygon
       style="fill:none;fill-opacity:0;stroke:#000000;stroke-width:1"
       points="160.752,275.599 161.865,273.659 162.411,278.098 158.533,275.872 "
       id="polygon132" />
  </g>
  <g
     id="g134"
     transform="translate(3.7035442,4.3222223)">
    <line
       style="fill:none;fill-opacity:0;stroke:#000000;stroke-width:1"
       x1="210.81599"
       y1="258.173"
       x2="199.248"
       y2="275.599"
       id="line136" />
    <polygon
       style="fill:#000000"
       points="199.248,275.599 201.467,275.872 197.589,278.098 198.135,273.659 "
       id="polygon138" />
    <polygon
       style="fill:none;fill-opacity:0;stroke:#000000;stroke-width:1"
       points="199.248,275.599 201.467,275.872 197.589,278.098 198.135,273.659 "
       id="polygon140" />
  </g>
  <g
     id="g142"
     transform="translate(3.7035442,4.3222223)">
    <line
       style="fill:none;fill-opacity:0;stroke:#000000;stroke-width:1"
       x1="130.81599"
       y1="258.173"
       x2="119.248"
       y2="275.599"
       id="line144" />
    <polygon
       style="fill:#000000"
       points="119.248,275.599 121.467,275.872 117.589,278.098 118.135,273.659 "
       id="polygon146" />
    <polygon
       style="fill:none;fill-opacity:0;stroke:#000000;stroke-width:1"
       points="119.248,275.599 121.467,275.872 117.589,278.098 118.135,273.659 "
       id="polygon148" />
  </g>
</svg>
