<?xml version="1.0" encoding="UTF-8" standalone="no"?>
<!-- Generator: Adobe Illustrator 27.2.0, SVG Export Plug-In . SVG Version: 6.00 Build 0)  -->

<svg
   version="1.1"
   id="Layer_1"
   x="0px"
   y="0px"
   viewBox="0 0 939.7344 116.80999"
   xml:space="preserve"
   sodipodi:docname="sigma2-nris2.svg"
   inkscape:version="1.1.2 (0a00cf5339, 2022-02-04)"
   width="939.73444"
   height="116.80999"
   xmlns:inkscape="http://www.inkscape.org/namespaces/inkscape"
   xmlns:sodipodi="http://sodipodi.sourceforge.net/DTD/sodipodi-0.dtd"
   xmlns:xlink="http://www.w3.org/1999/xlink"
   xmlns="http://www.w3.org/2000/svg"
   xmlns:svg="http://www.w3.org/2000/svg"><defs
   id="defs66" /><sodipodi:namedview
   id="namedview64"
   pagecolor="#ffffff"
   bordercolor="#666666"
   borderopacity="1.0"
   inkscape:pageshadow="2"
   inkscape:pageopacity="0.0"
   inkscape:pagecheckerboard="0"
   showgrid="false"
   inkscape:zoom="0.99365835"
   inkscape:cx="260.65297"
   inkscape:cy="48.306342"
   inkscape:window-width="3390"
   inkscape:window-height="1416"
   inkscape:window-x="50"
   inkscape:window-y="0"
   inkscape:window-maximized="1"
   inkscape:current-layer="Layer_1" />
<style
   type="text/css"
   id="style2">
	.st0{fill:#415364;}
	.st1{fill:#00758D;}
	.st2{fill:#FFFFFF;}
	.st3{clip-path:url(#SVGID_00000179639527105117013190000016597267813723978638_);fill:#415364;}
	.st4{clip-path:url(#SVGID_00000183244266124799384330000012287740739052654526_);fill:#415364;}
	.st5{clip-path:url(#SVGID_00000183244266124799384330000012287740739052654526_);}
	.st6{clip-path:url(#SVGID_00000127028862173139163280000000843519944593232286_);fill:#415364;}
	.st7{clip-path:url(#SVGID_00000127028862173139163280000000843519944593232286_);fill:#00758D;}
</style>
<rect
   x="203.22357"
   y="28.169983"
   class="st0"
   width="13.083544"
   height="61.419998"
   id="rect4"
   style="stroke-width:0.925945" />
<g
   id="g10"
   transform="matrix(0.857375,0,0,1,-40.725307,-369.17001)">
	<path
   class="st0"
   d="m 533.76,395.74 c -6.96,0 -19.55,1.47 -25.33,3.68 v 11.67 c 5.33,-1.72 16.59,-3.69 25.33,-3.69 10.66,0 13.63,3.19 13.63,9.83 v 1.23 l -16.74,1.11 c -21.92,1.47 -27.4,10.07 -27.4,19.78 0,10.69 6.37,21 26.96,21 5.64,0 11.72,-1.29 17.18,-3.62 v 2.03 h 15.11 v -38.71 -2.93 c 0,-12.78 -5.93,-21.38 -28.74,-21.38 z m 13.63,49.14 c -4,1.97 -10.67,3.81 -16.89,3.81 -10.81,0 -12,-5.16 -12,-9.34 0,-4.3 2.67,-8.6 12,-9.34 l 16.89,-1.23 z"
   id="path6" />
	<path
   class="st0"
   d="m 594.98,447.09 c 23.7,-12.65 37.92,-19.78 37.92,-31.2 0,-11.06 -7.4,-20.15 -30.36,-20.15 -7.11,0 -17.92,1.6 -23.4,3.44 v 11.91 c 5.92,-1.72 14.22,-3.69 23.55,-3.69 12,0 15.4,4.18 15.4,8.35 0,3.81 -1.04,6.26 -6.96,10.07 l -37.03,23.34 v 9.58 h 61.91 v -11.67 h -41.03 z"
   id="path8" />
</g>
<path
   class="st0"
   d="m 358.73428,26.569987 c -5.33287,0 -11.93466,1.84 -17.1475,5.04 -0.50585,0.37 -1.02028,0.74 -1.65474,1.11 -3.68671,-3.93 -9.52543,-6.14 -18.03059,-6.14 -4.33832,0 -9.51686,1.22 -14.09524,3.39 v -1.79 h -4.32117 -8.76238 v 61.41 h 13.08355 v -48.4 c 3.4295,-1.6 8.12791,-2.95 14.09524,-2.95 6.47318,0 9.65404,2.95 9.65404,8.97 v 42.38 h 13.08355 v -43.24 c 0,-1.72 -0.12861,-3.44 -0.38583,-4.91 0.12861,-0.12 0.25722,-0.12 0.38583,-0.25 3.4295,-1.6 8.12791,-2.95 14.09524,-2.95 6.47318,0 9.65404,2.95 9.65404,8.97 v 42.38 h 13.08355 v -43.24 c -0.01,-12.16 -6.86758,-19.78 -22.73759,-19.78"
   id="path12"
   style="stroke-width:0.925945" />
<path
   class="st0"
   d="m 188.55391,70.039987 c 0,-10.51 -4.07252,-16.49 -22.11169,-18.16 -9.38826,-0.84 -11.24019,-2.63 -11.24019,-6.09 0,-4.3 1.97196,-7.64 11.48882,-7.64 7.28769,0 12.96351,1.55 19.01658,3.46 v -11.35 c -6.42174,-2.75 -13.21215,-3.46 -18.89655,-3.46 -17.91056,0 -23.71499,10.03 -23.71499,18.99 0,8.84 3.70386,15.41 21.9831,16.96 9.63689,0.84 11.11158,3.47 11.11158,7.41 0,4.06 -2.83791,7.83 -12.84348,7.83 -0.01,0 -0.0258,0 -0.0343,0 v 11.65 c 19.08517,-0.04 25.24112,-10.06 25.24112,-19.6"
   id="path14"
   style="stroke-width:0.925945" />
<rect
   x="0"
   y="0"
   class="st1"
   width="120.45261"
   height="116.5"
   id="rect16"
   style="stroke-width:0.925945" />
<g
   id="g20"
   transform="matrix(0.857375,0,0,1,-40.725307,-369.17001)">
	<path
   class="st2"
   d="M 147.14,460.35 H 87.76 v -8.03 L 107.78,427.05 88.86,404.1 v -8.3 h 58.31 l -0.03,19.41 h -10.36 l -3.58,-8.81 h -24.58 l 16.34,20.62 -18.46,22.74 h 26.65 l 3.48,-9.75 h 10.53 v 20.34 z"
   id="path18" />
</g>
<g
   id="g32"
   transform="matrix(0.857375,0,0,1,-40.725307,-369.17001)">
	<defs
   id="defs23">
		<path
   id="SVGID_1_"
   d="m 364.87,397.37 h -1.89 v 5.78 c -2.33,-2.18 -4.93,-3.88 -7.8,-5.1 -3.55,-1.51 -7.87,-2.26 -12.95,-2.26 -6.6,0 -12.26,1.36 -16.97,4.08 -4.71,2.72 -8.29,6.53 -10.73,11.43 -2.45,4.9 -3.67,10.56 -3.67,16.99 0,6.27 1.33,11.83 3.98,16.67 2.65,4.84 6.42,8.62 11.29,11.34 4.87,2.72 10.49,4.08 16.87,4.08 8.12,0 14.78,-2.41 19.99,-7.24 v 0.33 0 c 0,9.6 -1.5,15.97 -4.92,19.11 -3.37,3.1 -6.03,4.64 -13.14,4.64 -5.08,0 -9.01,-0.81 -11.81,-2.44 -2.78,-1.62 -4.47,-4.12 -5.08,-7.5 h -13.6 c 0.82,5.74 3.48,10.22 8.02,13.43 4.96,3.51 13.67,5.27 22.68,5.27 11.4,0 19.93,-2.47 25.11,-7.74 5.46,-5.55 8,-13.66 8,-22.58 v -3.31 -4.68 -40.97 -9.33 z m -10.6,49.38 c -2.81,1.72 -6.18,2.58 -10.1,2.58 -3.84,0 -7.15,-0.86 -9.95,-2.58 -2.79,-1.72 -4.93,-4.2 -6.41,-7.45 -1.48,-3.24 -2.22,-7.1 -2.22,-11.58 0,-4.37 0.74,-8.14 2.22,-11.29 1.48,-3.15 3.55,-5.55 6.22,-7.18 2.67,-1.63 5.73,-2.45 9.2,-2.45 4.04,0 7.55,0.85 10.51,2.55 2.96,1.7 5.22,4.15 6.79,7.34 1.56,3.19 2.34,6.94 2.34,11.24 0,4.41 -0.73,8.22 -2.19,11.42 -1.45,3.22 -3.59,5.68 -6.41,7.4 z" />
	</defs>
	<use
   xlink:href="#SVGID_1_"
   style="overflow:visible;fill:#415364"
   id="use25"
   x="0"
   y="0"
   width="100%"
   height="100%" />
	<clipPath
   id="SVGID_00000140728701548676803040000012235746180680589723_">
		<use
   xlink:href="#SVGID_1_"
   style="overflow:visible"
   id="use27"
   x="0"
   y="0"
   width="100%"
   height="100%" />
	</clipPath>
	<path
   style="fill:#415364"
   d="m 353.74,409.36 c -2.96,-1.7 -6.47,-2.55 -10.51,-2.55 -3.46,0 -6.53,0.82 -9.2,2.45 -2.67,1.63 -4.75,4.02 -6.22,7.18 -1.48,3.15 -2.22,6.92 -2.22,11.29 0,4.48 0.74,8.34 2.22,11.58 1.48,3.24 3.62,5.73 6.41,7.45 2.79,1.72 6.11,2.58 9.95,2.58 3.92,0 7.29,-0.86 10.1,-2.58 2.81,-1.72 4.95,-4.18 6.41,-7.39 1.46,-3.21 2.19,-7.02 2.19,-11.42 0,-4.3 -0.78,-8.05 -2.34,-11.24 -1.56,-3.2 -3.83,-5.65 -6.79,-7.35 z"
   clip-path="url(#SVGID_00000140728701548676803040000012235746180680589723_)"
   id="path30" />
</g>
<g
   id="g61"
   transform="matrix(0.857375,0,0,1,-40.725307,-369.17001)">
	<g
   id="Layer_1_00000084508506947646686790000009703187399490173865_">
		<g
   id="g58">
			<defs
   id="defs35">
				<rect
   id="SVGID_00000095324601253256270980000012256029906667848621_"
   x="677.67999"
   y="264.32001"
   width="512.88"
   height="362.67999" />
			</defs>
			<clipPath
   id="SVGID_00000183247405003904546570000016731226840449876632_">
				<use
   xlink:href="#SVGID_00000095324601253256270980000012256029906667848621_"
   style="overflow:visible"
   id="use37"
   x="0"
   y="0"
   width="100%"
   height="100%" />
			</clipPath>
			<polygon
   style="fill:#415364"
   points="883.04,465.7 882.88,415.22 924.57,465.7 935.59,465.7 935.59,385.83 919.78,385.83 919.93,436.31 878.25,385.83 867.22,385.83 867.22,465.7 "
   clip-path="url(#SVGID_00000183247405003904546570000016731226840449876632_)"
   id="polygon40" />

				<rect
   x="1039.04"
   y="385.82999"
   style="fill:#415364"
   width="15.65"
   height="79.870003"
   clip-path="url(#SVGID_00000183247405003904546570000016731226840449876632_)"
   id="rect42" />
			<g
   clip-path="url(#SVGID_00000183247405003904546570000016731226840449876632_)"
   id="g56">
				<defs
   id="defs45">
					<rect
   id="SVGID_00000179619004475997521540000004348414272529594246_"
   x="677.67999"
   y="264.32001"
   width="512.88"
   height="362.67999" />
				</defs>
				<clipPath
   id="SVGID_00000170993158393872651560000008329884580246797441_">
					<use
   xlink:href="#SVGID_00000179619004475997521540000004348414272529594246_"
   style="overflow:visible"
   id="use47"
   x="0"
   y="0"
   width="100%"
   height="100%" />
				</clipPath>
				<path
   style="fill:#415364"
   d="m 1113.78,417.55 c 22.1,1.99 29.78,8.13 29.78,23.02 0,13.66 -8.59,25.48 -33.77,25.48 -7.67,0 -21.64,-1.99 -26.25,-3.99 v -14.43 c 5.07,1.84 16.42,3.84 26.4,3.84 13.66,0 18.42,-3.99 18.42,-10.74 0,-5.83 -3.84,-8.13 -15.96,-9.21 -22.56,-2 -30.24,-7.21 -30.24,-21.18 0,-14.58 8.75,-25.02 32.23,-25.02 7.52,0 17.65,0.62 25.63,3.99 v 14.12 c -7.67,-2.46 -16.12,-3.53 -25.79,-3.53 -12.74,0 -17.19,3.22 -17.19,9.67 0.01,5.53 4.77,6.91 16.74,7.98"
   clip-path="url(#SVGID_00000170993158393872651560000008329884580246797441_)"
   id="path50" />
				<path
   style="fill:#415364"
   d="m 963.32,421.61 h 18.37 c 9.74,0 11.5,-4.63 11.5,-10.38 0,-5.75 -1.76,-10.38 -11.5,-10.38 h -18.37 l -0.05,-15.01 h 19.06 c 20.61,0 27.47,10.86 27.47,25.24 0,9.74 -4.15,18.37 -12.78,22.68 l 18.53,31.95 h -19.17 l -15.17,-29.23 h -17.89 z"
   clip-path="url(#SVGID_00000170993158393872651560000008329884580246797441_)"
   id="path52" />
				<path
   style="fill:#00758d"
   d="m 839.55,450.83 v 0 h -14.48 c -3.5,0 -5.26,-0.28 -6.95,-6.6 L 807.23,402 c -2.78,-10.87 -9.63,-16.15 -20.94,-16.15 h -18.28 c -6.36,0 -11.69,1.87 -15.63,5.22 -3.93,-3.35 -9.27,-5.22 -15.62,-5.22 h -12.47 v 14.89 h 12.47 c 5.74,0 8.18,2.45 8.18,8.18 v 33.73 c 0,14.01 9.05,23.07 23.07,23.07 h 71.53 v 0 0 -14.89 z m -79.72,-8.19 v -33.73 c 0,-5.73 2.45,-8.18 8.18,-8.18 h 18.28 c 4.61,0 5.7,1.25 6.4,4.07 l 10.9,42.3 c 0.34,1.26 0.71,2.51 1.12,3.72 h -36.72 c -5.71,0.01 -8.16,-2.44 -8.16,-8.18"
   clip-path="url(#SVGID_00000170993158393872651560000008329884580246797441_)"
   id="path54" />
			</g>
		</g>
	</g>
</g>
</svg>
